<!DOCTYPE svg PUBLIC "-//W3C//DTD SVG 1.1//EN" "http://www.w3.org/Graphics/SVG/1.1/DTD/svg11.dtd">
<!-- Uploaded to: SVG Repo, www.svgrepo.com, Transformed by: SVG Repo Mixer Tools -->
<svg version="1.0" xmlns="http://www.w3.org/2000/svg" xmlns:xlink="http://www.w3.org/1999/xlink" width="256px" height="256px" viewBox="-3.6 -3.6 31.20 31.20" xml:space="preserve" fill="#000000" stroke="#000000" stroke-width="0.552">
<g id="SVGRepo_bgCarrier" stroke-width="0" transform="translate(0.9599999999999991,0.9599999999999991), scale(0.92)">
<path transform="translate(-3.6, -3.6), scale(0.9750000000000001)" d="M16,31.827527071038883C20.011731588873623,32.06818537219816,23.942710915459735,29.47794725431971,26.06516007774299,26.065160077742995C27.907553692324885,23.102687565427168,25.75543292046507,19.487540001997424,25.84330983294381,16C25.935934147764645,12.324051517246769,29.276148473898825,7.9208097137004,26.585502928164438,5.414497071835562C23.877520754444227,2.892035513604892,19.70018492214848,6.898950145996266,16,6.831043534808689C12.143910627475808,6.760275730703236,8.202376799405446,2.841860097291337,5.018698308619273,5.018698308619269C1.801615283877056,7.218376849508606,2.189926700717564,12.123402716552464,2.5901795874039344,15.999999999999998C2.945670097482441,19.44305710589807,4.836567989230121,22.284980298828945,7.074088386224645,24.92591161377535C9.601479220505443,27.90897519090574,12.09723689035284,31.593405640183516,16,31.827527071038883" fill="#a685be" strokewidth="0"/>
</g>
<g id="SVGRepo_tracerCarrier" stroke-linecap="round" stroke-linejoin="round"/>
<g id="SVGRepo_iconCarrier"> <g id="Guides"> <g id="_x32_0_px_2_"> </g> <g id="_x32_0px"> </g> <g id="_x34_0px"> </g> <g id="_x34_4_px"> </g> <g id="_x34_8px"> <g id="_x31_6px"> </g> <g id="square_4px"> <g id="_x32_8_px"> <g id="square_4px_2_"> </g> <g id="square_4px_3_"> </g> <g id="square_4px_1_"> </g> <g id="_x32_4_px_2_"> </g> <g id="_x31_2_px"> </g> </g> </g> </g> <g id="Icons"> </g> <g id="_x32_0_px"> </g> <g id="square_6px"> <g id="_x31_2_PX"> </g> </g> <g id="_x33_6_px"> <g id="_x33_2_px"> <g id="_x32_8_px_1_"> <g id="square_6px_1_"> </g> <g id="_x32_0_px_1_"> <g id="_x31_2_PX_2_"> </g> <g id="_x34_8_px"> <g id="_x32_4_px"> </g> <g id="_x32_4_px_1_"> </g> </g> </g> </g> </g> </g> <g id="_x32_0_px_3_"> </g> <g id="_x32_0_px_4_"> </g> <g id="New_Symbol_8"> <g id="_x32_4_px_3_"> </g> </g> </g> <g id="Artboard"> </g> <g id="Free_Icons"> <g> <polyline style="fill:none;stroke:#000000;stroke-linecap:round;stroke-linejoin:round;stroke-miterlimit:10;" points="15.5,17.5 2.5,17.5 2.5,9.5 "/> <polyline style="fill:none;stroke:#000000;stroke-linecap:round;stroke-linejoin:round;stroke-miterlimit:10;" points="7.5,4.5 19.5,4.5 19.5,12.5 "/> <line style="fill:none;stroke:#000000;stroke-linejoin:round;stroke-miterlimit:10;" x1="10.5" y1="17.5" x2="10.5" y2="21.5"/> <line style="fill:none;stroke:#000000;stroke-linecap:round;stroke-linejoin:round;stroke-miterlimit:10;" x1="6.5" y1="21.5" x2="14.5" y2="21.5"/> <line style="fill:none;stroke:#000000;stroke-linecap:round;stroke-linejoin:round;stroke-miterlimit:10;" x1="2.5" y1="14.5" x2="15.5" y2="14.5"/> <rect x="0.5" y="0.5" style="fill:none;stroke:#000000;stroke-linejoin:round;stroke-miterlimit:10;" width="5" height="7"/> <rect x="17.5" y="14.5" style="fill:none;stroke:#000000;stroke-linejoin:round;stroke-miterlimit:10;" width="6" height="9"/> <line style="fill:none;stroke:#000000;stroke-linecap:round;stroke-linejoin:round;stroke-miterlimit:10;" x1="2.5" y1="5.5" x2="3.5" y2="5.5"/> <line style="fill:none;stroke:#000000;stroke-linejoin:round;stroke-miterlimit:10;" x1="17.5" y1="21.5" x2="23.5" y2="21.5"/> </g> </g> </g>
</svg>